# xmcd
#
# Track frame offsets: 
#        183
#        14945
#        26485
#        42038
#        54168
#        66335
#        79695
#        95118
#        108388
#        123023
#        135028
#        151205
#        165785
#        178010
#        188508
#        202813
#        214240
#        227728
#
# Disc length: 3195 seconds
#
# Revision: 1
# Processed by: cddbd v1.5.2PL0 Copyright (c) Steve Scherf et al.
# Submitted via: ExactAudioCopy v0.95b4
#
DISCID=dc0c7912
DTITLE=Fats Waller - Honeysuckle Rose
DYEAR=1989
DGENRE=Jazz
TTITLE0=You're Not The Only Oyster In The Stew
TTITLE1=Mandy
TTITLE2=Let's Pretend There's A Moon
TTITLE3=Honeysuckle Rose
TTITLE4=Believe It, Beloved
TTITLE5=Dream Man
TTITLE6=I'm Groving Fonder Of You
TTITLE7=If It Is'nt Love
TTITLE8=Breakin' The Ice
TTITLE9=Lulu's Back In Town
TTITLE10=My Very Good Friend The Milkman
TTITLE11=I'm On A See Saw
TTITLE12=Us On A Bus
TTITLE13=I'm Crazy 'bout My Baby
TTITLE14=The Meanest Thing You Ever Did Was Kiss Me
TTITLE15=I'm Gonna Put You In Your Place
TTITLE16=Lost And Found
TTITLE17=There's Honey On The Moon Tonight
EXTD=
EXTT0=
EXTT1=
EXTT2=
EXTT3=
EXTT4=
EXTT5=
EXTT6=
EXTT7=
EXTT8=
EXTT9=
EXTT10=
EXTT11=
EXTT12=
EXTT13=
EXTT14=
EXTT15=
EXTT16=
EXTT17=
PLAYORDER=
